<svg width="98" height="98" fill="none" xmlns="http://www.w3.org/2000/svg"><circle cx="74.48" cy="25.48" r="14.7" fill="#00C26D"/><path fill-rule="evenodd" clip-rule="evenodd" d="M47.51 41.442c-.826.04-1.317.01-1.582-.021-.945-.113-3.264-1.462-5.865-3.826a1.572 1.572 0 0 0-2.606.9l-1.298 7.439a4.339 4.339 0 0 0-.03.125 1.582 1.582 0 0 0 1.014 1.822c4.354 1.546 7.583 3.242 9.337 4.906 3.91 3.704 5.837 8.947 5.915 9.164a1.736 1.736 0 0 1-1.542 2.32c-.762.025-1.446-.424-1.674-1.055-.253-.895-1.686-5.489-5.231-8.045-5.415-3.905-11.505-5.135-13.293-5.427a4.745 4.745 0 0 1-3.084-1.965 4.764 4.764 0 0 1-.794-3.577l1.596-9.175a1.583 1.583 0 0 0-.365-1.31c-.3-.345-.731-.541-1.184-.541l-.06.001c-1.963.074-4.774 1.885-5.925 3.148-2.633 2.887-3.125 8.027-3.19 8.957-.084.656-.308 1.147-.63 1.38-.341.246-.806.218-1.137.153-1.074-.215-1.013-1.633-.923-2.355.313-3.343 1.48-7.824 3.809-10.38 3.486-3.83 11.557-4.92 13.526-5.002.504-.02 1.626-.02 1.952.036a4.78 4.78 0 0 1 2.82 1.625c.071.085.153.163.24.23.038.03.078.057.113.094 2.235 2.418 6.437 6.498 8.193 7.158a1.6 1.6 0 0 0 .422.095c1.909.154 7.06-.737 8.882-1.095.317-.06.79-.035 1.172.23.302.21.487.535.563.994.055.33.201 1.204-1.308 1.57l-.353.088c-1.345.333-4.916 1.22-7.48 1.34zM33.173 65.074c-.983 4.133-2.9 7.99-2.921 8.031a1.708 1.708 0 0 1-.96.857c-.448.16-.929.132-1.353-.081a1.731 1.731 0 0 1-.77-2.33c.073-.15 1.787-3.67 2.647-7.281.519-2.181.864-8.237.994-11.29.793.152 1.982.422 3.398.871-.057 1.8-.302 8.14-1.035 11.223zm33.697-43.772 3.18 4.574H56.841V14.92h13.208l-3.18 4.575a1.587 1.587 0 0 0 0 1.808zM56.84 44.529V42.84c2.156-.821 3.29-2.677 2.915-4.92-.22-1.305-.868-2.367-1.876-3.067a4.513 4.513 0 0 0-1.04-.518v-5.3h16.226c.587 0 1.124-.326 1.396-.848a1.583 1.583 0 0 0-.104-1.635l-4.28-6.154 4.28-6.155a1.586 1.586 0 0 0 .104-1.635 1.574 1.574 0 0 0-1.396-.848H55.267c-.87 0-1.574.707-1.574 1.58v20.897c-2.66.497-5.851.932-7.14.94-.964-.563-3.922-3.122-6.827-6.264a3.656 3.656 0 0 0-.364-.338 7.928 7.928 0 0 0-4.576-2.573c-.837-.147-2.605-.081-2.62-.081-.107.003-10.778.596-15.721 6.028C12.852 35.888 12 42.294 11.824 44.18c-.382 2.986.97 5.237 3.442 5.731 1.332.27 2.606.025 3.591-.685.735-.53 1.665-1.577 1.925-3.648.13-1.819.778-5.365 2.38-7.12.375-.414.996-.878 1.638-1.266l-1.124 6.465a7.917 7.917 0 0 0 1.32 5.937A7.826 7.826 0 0 0 27.7 52c-.089 2.529-.451 9.452-.946 11.536-.778 3.272-2.343 6.484-2.406 6.613a4.877 4.877 0 0 0-.26 3.734 4.853 4.853 0 0 0 2.444 2.826c.254.125.517.204.78.283l-4.622 5.69c-.55.676-.45 1.67.224 2.223a1.569 1.569 0 0 0 2.215-.226L42.39 63.437a1.585 1.585 0 0 0-.225-2.223 1.57 1.57 0 0 0-2.214.226l-3.794 4.668c.026-.102.052-.2.076-.301.698-2.934.98-8.15 1.084-10.784 1.56.687 3.21 1.57 4.794 2.713 2.75 1.984 3.914 5.898 4.038 6.338a4.847 4.847 0 0 0 4.849 3.353 4.87 4.87 0 0 0 1.43-.286c2.527-.916 3.841-3.724 2.927-6.264-.226-.627-2.342-6.247-6.713-10.387-1.914-1.814-5-3.535-9.186-5.124l.634-3.636c1.654 1.273 3.763 2.625 5.468 2.829.565.066 1.252.08 2.101.039 1.934-.09 4.27-.545 6.034-.941v.872l-2.764 3.399a1.587 1.587 0 0 0 .226 2.223c.673.55 1.666.449 2.215-.226l1.897-2.334 30.14 37.088a1.568 1.568 0 0 0 2.214.226 1.587 1.587 0 0 0 .226-2.223L56.84 44.528z" fill="#293349"/><path fill-rule="evenodd" clip-rule="evenodd" d="M89.798 65.056 74.469 46.638a1.618 1.618 0 0 0-1.243-.578c-.482 0-.937.212-1.241.578L67 52.625a1.55 1.55 0 0 0 .229 2.211 1.628 1.628 0 0 0 2.256-.225l3.74-4.493 14.087 16.924a1.624 1.624 0 0 0 2.256.224 1.548 1.548 0 0 0 .229-2.21zM35.62 14.896l.152-.002a3.239 3.239 0 0 1 3.23 3.083c.04.864-.258 1.691-.841 2.332a3.217 3.217 0 0 1-2.24 1.054 3.22 3.22 0 0 1-2.33-.84 3.24 3.24 0 0 1 2.029-5.627zm.142 9.604a6.324 6.324 0 0 0 4.717-2.082 6.327 6.327 0 0 0 1.654-4.587c-.165-3.508-3.157-6.222-6.66-6.064-3.508.164-6.23 3.152-6.066 6.659a6.33 6.33 0 0 0 2.071 4.412 6.324 6.324 0 0 0 4.284 1.662z" fill="#293349"/></svg>