<svg width="98" height="98" fill="none" xmlns="http://www.w3.org/2000/svg"><circle cx="49" cy="25.48" r="14.7" fill="#00C26D"/><path fill-rule="evenodd" clip-rule="evenodd" d="M48.958 20.523a3.992 3.992 0 0 0-3.987 3.987 3.992 3.992 0 0 0 3.987 3.987 3.992 3.992 0 0 0 3.988-3.987 3.992 3.992 0 0 0-3.988-3.988zm0 10.57a6.59 6.59 0 0 1-6.584-6.583 6.59 6.59 0 0 1 6.584-6.584 6.591 6.591 0 0 1 6.584 6.584 6.591 6.591 0 0 1-6.584 6.583z" fill="#293349"/><path fill-rule="evenodd" clip-rule="evenodd" d="M42.47 91.93a1.3 1.3 0 0 1-1.298-1.288l-.445-53.144-10.91-26.107a3.962 3.962 0 0 1 1.348-4.763A3.973 3.973 0 0 1 34.453 6a3.971 3.971 0 0 1 2.603 2.103l7.782 15.834a1.297 1.297 0 1 1-2.33 1.145L34.727 9.248a1.36 1.36 0 0 0-.904-.73 1.361 1.361 0 0 0-1.142.218 1.376 1.376 0 0 0-.469 1.654L43.22 36.732c.066.155.099.322.1.49l.449 53.398a1.297 1.297 0 0 1-1.288 1.309h-.01zM55.893 45.283a1.298 1.298 0 0 1-1.298-1.298v-6.752c0-.172.034-.342.1-.5L65.702 10.39a1.376 1.376 0 0 0-.467-1.654 1.361 1.361 0 0 0-1.142-.218c-.402.1-.722.36-.904.73l-7.78 15.834a1.298 1.298 0 1 1-2.33-1.145l7.779-15.834A3.97 3.97 0 0 1 63.463 6a3.969 3.969 0 0 1 3.286.628 3.958 3.958 0 0 1 1.349 4.763L57.19 37.493v6.492c0 .717-.58 1.298-1.298 1.298zM48.51 91.93l-.017-.001a1.298 1.298 0 0 1-1.28-1.316l.447-32.824c.01-.71.589-1.28 1.298-1.28h.018a1.3 1.3 0 0 1 1.28 1.316l-.448 32.824c-.01.71-.588 1.28-1.298 1.28z" fill="#293349"/><path fill-rule="evenodd" clip-rule="evenodd" d="M55.297 49.783a2.191 2.191 0 0 0-2.163 1.875l-1.86 13.722c-.087.59.06 1.166.41 1.635.35.468.862.772 1.44.855a2.176 2.176 0 0 0 1.623-.412c.467-.35.772-.861.855-1.44l1.86-13.721a2.175 2.175 0 0 0-.41-1.635 2.17 2.17 0 0 0-1.755-.879zm-1.85 20.707c-.232 0-.464-.017-.696-.05a4.754 4.754 0 0 1-3.148-1.872 4.758 4.758 0 0 1-.901-3.548l1.862-13.722a4.79 4.79 0 0 1 5.42-4.061 4.754 4.754 0 0 1 3.148 1.871 4.75 4.75 0 0 1 .902 3.549l-1.862 13.722a4.751 4.751 0 0 1-1.873 3.159 4.743 4.743 0 0 1-2.852.952z" fill="#293349"/><path fill-rule="evenodd" clip-rule="evenodd" d="M86.817 66.114c-.182 0-.367-.04-.544-.12L65.5 56.39a2.713 2.713 0 0 1-1.582-2.398 2.714 2.714 0 0 1 1.444-2.484l2.253-1.202c.017-.01.064-.035.07-.109.004-.068-.032-.096-.05-.108-2.576-1.925-8.43-5.153-18.677-5.153s-16.1 3.228-18.68 5.152c-.015.013-.053.04-.048.11.007.074.054.099.071.108l2.254 1.202a2.714 2.714 0 0 1 1.443 2.484 2.715 2.715 0 0 1-1.584 2.398l-20.771 9.602a1.3 1.3 0 1 1-1.089-2.356l20.772-9.602c.026-.012.074-.035.076-.116.002-.081-.045-.106-.07-.12l-2.253-1.201a2.716 2.716 0 0 1-1.436-2.203 2.707 2.707 0 0 1 1.083-2.386c2.835-2.117 9.234-5.668 20.232-5.668 10.997 0 17.395 3.551 20.232 5.668a2.706 2.706 0 0 1 1.083 2.386 2.715 2.715 0 0 1-1.438 2.203l-2.252 1.201c-.026.014-.072.039-.069.12.002.081.05.104.076.116l20.772 9.602a1.298 1.298 0 0 1-.545 2.477z" fill="#293349"/></svg>