<svg width="98" height="98" fill="none" xmlns="http://www.w3.org/2000/svg"><circle cx="63.7" cy="36.26" fill="#00C26D" r="14.7"/><path fill-rule="evenodd" clip-rule="evenodd" d="M20.231 59.959c-.795 0-1.439.644-1.439 1.439V77.66a1.438 1.438 0 1 0 2.878 0V61.398a1.44 1.44 0 0 0-1.439-1.44zM28.03 39.767a3.911 3.911 0 0 1 3.906 3.907 3.91 3.91 0 0 1-3.906 3.906 3.91 3.91 0 0 1-3.906-3.906 3.912 3.912 0 0 1 3.906-3.907zm0 10.69a6.791 6.791 0 0 0 6.784-6.783 6.791 6.791 0 0 0-6.784-6.785 6.792 6.792 0 0 0-6.783 6.785 6.792 6.792 0 0 0 6.783 6.784z" fill="#293349"/><path fill-rule="evenodd" clip-rule="evenodd" d="m79.503 51.745-5.966-.005h-.002c-.49 0-.944.249-1.209.66l-2.565 3.978-2.565-3.978a1.438 1.438 0 0 0-1.21-.66H61.96c-.038 0-.075.002-.114.005h-1.829a5.554 5.554 0 0 0-5.547 5.546v5.923l-5.575 1.924-5.578-1.924v-5.923a5.553 5.553 0 0 0-5.546-5.546h-1.83c-.037-.003-.075-.005-.113-.005h-4.026c-.488 0-.943.249-1.208.66l-2.565 3.978-2.566-3.978a1.44 1.44 0 0 0-1.21-.66l-5.967.005a5.554 5.554 0 0 0-5.547 5.546v20.37a1.439 1.439 0 1 0 2.878 0V57.29a2.672 2.672 0 0 1 2.67-2.669l5.184-.003 3.348 5.194c.531.822 1.89.822 2.419 0l3.35-5.195h3.125c.038.003.076.004.115.004h1.943a2.67 2.67 0 0 1 2.668 2.669v6.944c0 .002.002.002.002.003 0 0-.002 0-.002.002 0 .18.043.35.105.511.016.045.04.082.061.123a1.435 1.435 0 0 0 .31.416c.101.09.214.165.338.226.032.017.06.037.093.05.023.01.04.026.064.034l7.015 2.42a1.43 1.43 0 0 0 .939 0l7.016-2.42c.022-.007.04-.025.06-.034.037-.013.063-.033.095-.05a1.419 1.419 0 0 0 .434-.326c.087-.096.157-.2.214-.316.021-.041.045-.078.061-.123.063-.161.104-.332.104-.511v-6.95a2.672 2.672 0 0 1 2.67-2.668h1.943c.037 0 .077 0 .115-.004h3.126l3.349 5.195a1.438 1.438 0 0 0 2.417 0l3.35-5.194 5.184.003a2.672 2.672 0 0 1 2.67 2.669v20.37a1.438 1.438 0 1 0 2.877 0V57.29a5.554 5.554 0 0 0-5.547-5.546z" fill="#293349"/><path fill-rule="evenodd" clip-rule="evenodd" d="M77.559 59.959a1.44 1.44 0 0 0-1.439 1.439V77.66a1.439 1.439 0 1 0 2.878 0V61.398a1.44 1.44 0 0 0-1.439-1.44zM61.962 59.959a1.44 1.44 0 0 0-1.44 1.439v6.938l-10.701 3.51c-.089.023-.175.037-.357.07l-.152.032-.155.012c-.084.01-.165.02-.267.02a4.535 4.535 0 0 1-.342-.028l-.173-.026-.144-.028-.194-.033-10.77-3.528v-6.94a1.44 1.44 0 0 0-2.877 0v16.264a1.438 1.438 0 1 0 2.878 0v-6.296l9.94 3.255c.174.048.343.08.542.114.083.019.164.037.274.055.094.014.185.024.321.034.177.019.357.035.532.035h.012c.202.004.373-.015.6-.037.092-.008.184-.017.302-.036.082-.013.162-.031.282-.055.17-.03.337-.062.577-.13l9.873-3.235v6.296a1.439 1.439 0 1 0 2.877 0V61.397c0-.795-.643-1.44-1.438-1.44zM69.76 39.767a3.911 3.911 0 0 1 3.906 3.907 3.91 3.91 0 0 1-3.906 3.906 3.91 3.91 0 0 1-3.905-3.906 3.911 3.911 0 0 1 3.905-3.907zm-6.783 3.907a6.792 6.792 0 0 0 6.783 6.784 6.791 6.791 0 0 0 6.784-6.784 6.791 6.791 0 0 0-6.784-6.785 6.792 6.792 0 0 0-6.783 6.785zM41.285 29.284l6.273 6.271a1.44 1.44 0 0 0 2.035 0l13.461-13.46 2.157 2.156-16.75 16.751-9.413-9.415 2.237-2.303zm6.159 14.77a1.441 1.441 0 0 0 2.034 0l18.786-18.785a1.44 1.44 0 0 0 0-2.035l-4.192-4.193a1.442 1.442 0 0 0-2.034 0L48.575 32.504l-6.287-6.288a1.404 1.404 0 0 0-1.028-.421c-.386.003-.754.16-1.021.436L35.995 30.6a1.437 1.437 0 0 0 .015 2.019l11.434 11.435z" fill="#293349"/></svg>